<?xml version="1.0" standalone="no"?><svg xmlns="http://www.w3.org/2000/svg" xmlns:xlink="http://www.w3.org/1999/xlink" style="isolation:isolate" viewBox="0 0 210 210" width="210" height="210"><defs><clipPath id="_clipPath_pHEFAYiaYzEajLluHV7xjABpZRP1SRNx"><rect width="210" height="210"/></clipPath></defs><g clip-path="url(#_clipPath_pHEFAYiaYzEajLluHV7xjABpZRP1SRNx)"><g id="Group"><path d=" M 20.033 89.655 L 29.411 149.212 C 29.583 150.303 30.576 151.462 31.627 151.799 L 117.818 179.445 C 118.869 179.782 120.443 179.523 121.331 178.866 L 188.392 129.283 C 189.279 128.627 189.993 127.198 189.984 126.094 L 189.738 95.453 C 189.73 94.349 189.366 92.631 188.928 91.618 L 170.517 49.1 C 170.078 48.087 168.842 47.096 167.758 46.887 L 81.686 30.322 C 80.602 30.114 79.077 30.566 78.281 31.331 L 21.164 86.293 C 20.368 87.058 19.862 88.565 20.033 89.655 Z  M 81.109 31.386 L 128.336 80.465 L 129.722 81.906 L 128.336 80.465 L 81.109 31.386 L 79.722 29.944 L 81.109 31.386 Z  M 31.664 150.708 L 97.781 134.348 L 99.722 133.868 L 97.781 134.348 L 31.664 150.708 L 29.722 151.188 L 31.664 150.708 Z  M 128.722 83.638 L 100.722 132.135 L 99.722 133.868 L 100.722 132.135 L 128.722 83.638 L 129.722 81.906 L 128.722 83.638 Z  M 100.517 135.703 L 118.928 178.22 L 119.722 180.056 L 118.928 178.22 L 100.517 135.703 L 99.722 133.868 L 100.517 135.703 Z  M 101.718 133.74 L 188.004 128.222 L 190 128.094 L 188.004 128.222 L 101.718 133.74 L 99.722 133.868 L 101.718 133.74 Z  M 131.686 82.284 L 187.758 93.075 L 189.722 93.453 L 187.758 93.075 L 131.686 82.284 L 129.722 81.906 L 131.686 82.284 Z " fill-rule="evenodd" fill="none" stroke-width="10" stroke="rgb(68,33,120)" stroke-linejoin="miter" stroke-linecap="square" stroke-miterlimit="3"/></g></g></svg>
